ffmpeg started on 2025-05-12 at 15:07:13
Report written to "D:\Convert\FFMetrics\reports\psnr_report-6.txt"
Log level: 32
Command line:
ffmpeg -hide_banner -nostdin -i "G:\\\xc0\xed\xe8\xec\xe5\\\xce\xed\xe3\xee\xe8\xed\xe3\xe8\\!_35_\xcb\xe5\xf2\xee_2024\\DreamCast\\\xc6\xe8\xe7\xed\xfc \xf1 \xec\xee\xe5\xe9 \xf1\xe2\xee\xe4\xed\xee\xe9 \xf1\xe5\xf1\xf2\xf0\xee\xe9\\[DC] Gimai Seikatsu - 03_Telegram_HEVC.mkv" -i "G:\\\xc0\xed\xe8\xec\xe5\\\xce\xed\xe3\xee\xe8\xed\xe3\xe8\\!_35_\xcb\xe5\xf2\xee_2024\\DreamCast\\\xc6\xe8\xe7\xed\xfc \xf1 \xec\xee\xe5\xe9 \xf1\xe2\xee\xe4\xed\xee\xe9 \xf1\xe5\xf1\xf2\xf0\xee\xe9\\[DC] Gimai Seikatsu - 03_Telegram.mp4" -lavfi "[0:v]settb=AVTB,setpts=PTS-STARTPTS,format=pix_fmts=yuv420p10,fps=24000/1001,scale=1920:1080:flags=bicubic[main];[1:v]settb=AVTB,setpts=PTS-STARTPTS,format=pix_fmts=yuv420p,fps=24000/1001,scale=1920:1080:flags=bicubic[ref];[main][ref]psnr=eof_action=endall:stats_file='D\\:/Convert/FFMetrics/logs/psnr_logfile-6.txt'" -f null -
Input #0, matroska,webm, from 'G:\Аниме\Онгоинги\!_35_Лето_2024\DreamCast\Жизнь с моей сводной сестрой\[DC] Gimai Seikatsu - 03_Telegram_HEVC.mkv':
  Metadata:
    COMPATIBLE_BRANDS: isomiso2avc1mp41
    MAJOR_BRAND     : isom
    MINOR_VERSION   : 512
    ENCODER         : Lavf61.7.100
  Duration: 00:24:01.67, start: -0.021000, bitrate: 817 kb/s
  Stream #0:0: Video: hevc (Main 10), yuv420p10le(tv, bt709, progressive), 1920x1080 [SAR 1:1 DAR 16:9], 23.98 fps, 23.98 tbr, 1k tbn (default)
      Metadata:
        HANDLER_NAME    : VideoHandler
        VENDOR_ID       : [0][0][0][0]
        ENCODER         : Lavc61.19.100 libx265
        BPS             : 622554
        DURATION        : 00:23:56.559708333
        NUMBER_OF_FRAMES: 34443
        NUMBER_OF_BYTES : 111792076
        _STATISTICS_WRITING_APP: mkvpropedit v66.0.0 ('Josie') 64-bit
        _STATISTICS_WRITING_DATE_UTC: 2025-05-07 12:42:25
        _STATISTICS_TAGS: BPS DURATION NUMBER_OF_FRAMES NUMBER_OF_BYTES
  Stream #0:1: Audio: aac (LC), 48000 Hz, stereo, fltp (default)
      Metadata:
        HANDLER_NAME    : SoundHandler
        VENDOR_ID       : [0][0][0][0]
        ENCODER         : Lavc61.19.100 aac
        BPS             : 192803
        DURATION        : 00:24:01.664000000
        NUMBER_OF_FRAMES: 67579
        NUMBER_OF_BYTES : 34744751
        _STATISTICS_WRITING_APP: mkvpropedit v66.0.0 ('Josie') 64-bit
        _STATISTICS_WRITING_DATE_UTC: 2025-05-07 12:42:25
        _STATISTICS_TAGS: BPS DURATION NUMBER_OF_FRAMES NUMBER_OF_BYTES
Input #1, mov,mp4,m4a,3gp,3g2,mj2, from 'G:\Аниме\Онгоинги\!_35_Лето_2024\DreamCast\Жизнь с моей сводной сестрой\[DC] Gimai Seikatsu - 03_Telegram.mp4':
  Metadata:
    major_brand     : isom
    minor_version   : 512
    compatible_brands: isomiso2avc1mp41
    encoder         : Lavf61.1.100
  Duration: 00:24:01.64, start: 0.000000, bitrate: 3736 kb/s
  Stream #1:0[0x1](und): Video: h264 (High) (avc1 / 0x31637661), yuv420p(tv, bt709, progressive), 1920x1080 [SAR 1:1 DAR 16:9], 3600 kb/s, 23.98 fps, 23.98 tbr, 24k tbn (default)
      Metadata:
        handler_name    : VideoHandler
        vendor_id       : [0][0][0][0]
        encoder         : Lavc61.3.100 h264_qsv
  Stream #1:1[0x2](und): Audio: aac (HE-AACv2) (mp4a / 0x6134706D), 48000 Hz, stereo, fltp, 144 kb/s (default)
      Metadata:
        handler_name    : SoundHandler
        vendor_id       : [0][0][0][0]
Stream mapping:
  Stream #0:0 (hevc) -> settb:default
  Stream #1:0 (h264) -> settb:default
  psnr:default -> Stream #0:0 (wrapped_avframe)
  Stream #0:1 -> #0:1 (aac (native) -> pcm_s16le (native))
Output #0, null, to 'pipe:':
  Metadata:
    COMPATIBLE_BRANDS: isomiso2avc1mp41
    MAJOR_BRAND     : isom
    MINOR_VERSION   : 512
    encoder         : Lavf61.7.100
  Stream #0:0: Video: wrapped_avframe, yuv420p10le(tv, bt709, progressive), 1920x1080 [SAR 1:1 DAR 16:9], q=2-31, 200 kb/s, 23.98 fps, 23.98 tbn
      Metadata:
        encoder         : Lavc61.19.100 wrapped_avframe
  Stream #0:1: Audio: pcm_s16le, 48000 Hz, stereo, s16, 1536 kb/s (default)
      Metadata:
        HANDLER_NAME    : SoundHandler
        VENDOR_ID       : [0][0][0][0]
        _STATISTICS_TAGS: BPS DURATION NUMBER_OF_FRAMES NUMBER_OF_BYTES
        BPS             : 192803
        DURATION        : 00:24:01.664000000
        NUMBER_OF_FRAMES: 67579
        NUMBER_OF_BYTES : 34744751
        _STATISTICS_WRITING_APP: mkvpropedit v66.0.0 ('Josie') 64-bit
        _STATISTICS_WRITING_DATE_UTC: 2025-05-07 12:42:25
        encoder         : Lavc61.19.100 pcm_s16le
frame=  163 fps=0.0 q=-0.0 size=N/A time=00:00:06.79 bitrate=N/A speed=13.2x    frame=  422 fps=407 q=-0.0 size=N/A time=00:00:17.60 bitrate=N/A speed=  17x    frame=  659 fps=427 q=-0.0 size=N/A time=00:00:27.48 bitrate=N/A speed=17.8x    frame=  879 fps=426 q=-0.0 size=N/A time=00:00:36.66 bitrate=N/A speed=17.8x    frame= 1148 fps=444 q=-0.0 size=N/A time=00:00:47.88 bitrate=N/A speed=18.5x    frame= 1411 fps=456 q=-0.0 size=N/A time=00:00:58.85 bitrate=N/A speed=  19x    frame= 1686 fps=466 q=-0.0 size=N/A time=00:01:10.32 bitrate=N/A speed=19.4x    frame= 1946 fps=472 q=-0.0 size=N/A time=00:01:21.16 bitrate=N/A speed=19.7x    frame= 2197 fps=473 q=-0.0 size=N/A time=00:01:31.63 bitrate=N/A speed=19.7x    frame= 2453 fps=476 q=-0.0 size=N/A time=00:01:42.31 bitrate=N/A speed=19.9x    frame= 2713 fps=478 q=-0.0 size=N/A time=00:01:53.15 bitrate=N/A speed=19.9x    frame= 2977 fps=481 q=-0.0 size=N/A time=00:02:04.16 bitrate=N/A speed=  20x    frame= 3235 fps=483 q=-0.0 size=N/A time=00:02:14.92 bitrate=N/A speed=20.1x    frame= 3488 fps=483 q=-0.0 size=N/A time=00:02:25.47 bitrate=N/A speed=20.1x    frame= 3740 fps=484 q=-0.0 size=N/A time=00:02:35.98 bitrate=N/A speed=20.2x    frame= 4009 fps=485 q=-0.0 size=N/A time=00:02:47.20 bitrate=N/A speed=20.2x    frame= 4276 fps=488 q=-0.0 size=N/A time=00:02:58.34 bitrate=N/A speed=20.4x    frame= 4551 fps=490 q=-0.0 size=N/A time=00:03:09.81 bitrate=N/A speed=20.4x    frame= 4819 fps=492 q=-0.0 size=N/A time=00:03:20.99 bitrate=N/A speed=20.5x    frame= 5094 fps=494 q=-0.0 size=N/A time=00:03:32.46 bitrate=N/A speed=20.6x    frame= 5347 fps=493 q=-0.0 size=N/A time=00:03:43.01 bitrate=N/A speed=20.6x    frame= 5579 fps=492 q=-0.0 size=N/A time=00:03:52.69 bitrate=N/A speed=20.5x    frame= 5810 fps=490 q=-0.0 size=N/A time=00:04:02.32 bitrate=N/A speed=20.4x    frame= 6040 fps=488 q=-0.0 size=N/A time=00:04:11.91 bitrate=N/A speed=20.3x    frame= 6288 fps=487 q=-0.0 size=N/A time=00:04:22.26 bitrate=N/A speed=20.3x    frame= 6531 fps=486 q=-0.0 size=N/A time=00:04:32.39 bitrate=N/A speed=20.3x    frame= 6775 fps=486 q=-0.0 size=N/A time=00:04:42.57 bitrate=N/A speed=20.3x    frame= 7024 fps=486 q=-0.0 size=N/A time=00:04:52.95 bitrate=N/A speed=20.3x    frame= 7271 fps=486 q=-0.0 size=N/A time=00:05:03.26 bitrate=N/A speed=20.3x    frame= 7488 fps=484 q=-0.0 size=N/A time=00:05:12.31 bitrate=N/A speed=20.2x    frame= 7663 fps=479 q=-0.0 size=N/A time=00:05:19.61 bitrate=N/A speed=  20x    frame= 7877 fps=477 q=-0.0 size=N/A time=00:05:28.53 bitrate=N/A speed=19.9x    frame= 8103 fps=475 q=-0.0 size=N/A time=00:05:37.96 bitrate=N/A speed=19.8x    frame= 8325 fps=474 q=-0.0 size=N/A time=00:05:47.22 bitrate=N/A speed=19.8x    frame= 8565 fps=474 q=-0.0 size=N/A time=00:05:57.23 bitrate=N/A speed=19.8x    frame= 8822 fps=474 q=-0.0 size=N/A time=00:06:07.95 bitrate=N/A speed=19.8x    frame= 9069 fps=474 q=-0.0 size=N/A time=00:06:18.25 bitrate=N/A speed=19.8x    frame= 9313 fps=475 q=-0.0 size=N/A time=00:06:28.42 bitrate=N/A speed=19.8x    frame= 9535 fps=473 q=-0.0 size=N/A time=00:06:37.68 bitrate=N/A speed=19.7x    frame= 9775 fps=473 q=-0.0 size=N/A time=00:06:47.69 bitrate=N/A speed=19.7x    frame=10013 fps=473 q=-0.0 size=N/A time=00:06:57.62 bitrate=N/A speed=19.7x    frame=10274 fps=474 q=-0.0 size=N/A time=00:07:08.51 bitrate=N/A speed=19.8x    frame=10520 fps=474 q=-0.0 size=N/A time=00:07:18.77 bitrate=N/A speed=19.8x    frame=10792 fps=475 q=-0.0 size=N/A time=00:07:30.11 bitrate=N/A speed=19.8x    frame=11046 fps=475 q=-0.0 size=N/A time=00:07:40.71 bitrate=N/A speed=19.8x    frame=11303 fps=476 q=-0.0 size=N/A time=00:07:51.42 bitrate=N/A speed=19.9x    frame=11585 fps=477 q=-0.0 size=N/A time=00:08:03.19 bitrate=N/A speed=19.9x    frame=11861 fps=478 q=-0.0 size=N/A time=00:08:14.70 bitrate=N/A speed=  20x    frame=12129 fps=480 q=-0.0 size=N/A time=00:08:25.88 bitrate=N/A speed=  20x    frame=12392 fps=480 q=-0.0 size=N/A time=00:08:36.84 bitrate=N/A speed=  20x    frame=12652 fps=481 q=-0.0 size=N/A time=00:08:47.69 bitrate=N/A speed=  20x    frame=12926 fps=481 q=-0.0 size=N/A time=00:08:59.12 bitrate=N/A speed=20.1x    frame=13198 fps=482 q=-0.0 size=N/A time=00:09:10.46 bitrate=N/A speed=20.1x    frame=13470 fps=483 q=-0.0 size=N/A time=00:09:21.81 bitrate=N/A speed=20.1x    frame=13734 fps=484 q=-0.0 size=N/A time=00:09:32.82 bitrate=N/A speed=20.2x    frame=14002 fps=484 q=-0.0 size=N/A time=00:09:44.00 bitrate=N/A speed=20.2x    frame=14267 fps=485 q=-0.0 size=N/A time=00:09:55.05 bitrate=N/A speed=20.2x    frame=14524 fps=485 q=-0.0 size=N/A time=00:10:05.77 bitrate=N/A speed=20.2x    frame=14765 fps=485 q=-0.0 size=N/A time=00:10:15.82 bitrate=N/A speed=20.2x    frame=15015 fps=485 q=-0.0 size=N/A time=00:10:26.25 bitrate=N/A speed=20.2x    frame=15282 fps=485 q=-0.0 size=N/A time=00:10:37.38 bitrate=N/A speed=20.2x    frame=15552 fps=486 q=-0.0 size=N/A time=00:10:48.64 bitrate=N/A speed=20.3x    frame=15812 fps=486 q=-0.0 size=N/A time=00:10:59.49 bitrate=N/A speed=20.3x    frame=16075 fps=486 q=-0.0 size=N/A time=00:11:10.46 bitrate=N/A speed=20.3x    frame=16338 fps=487 q=-0.0 size=N/A time=00:11:21.43 bitrate=N/A speed=20.3x    frame=16614 fps=487 q=-0.0 size=N/A time=00:11:32.94 bitrate=N/A speed=20.3x    frame=16883 fps=488 q=-0.0 size=N/A time=00:11:44.16 bitrate=N/A speed=20.4x    frame=17151 fps=488 q=-0.0 size=N/A time=00:11:55.33 bitrate=N/A speed=20.4x    frame=17396 fps=488 q=-0.0 size=N/A time=00:12:05.55 bitrate=N/A speed=20.4x    frame=17652 fps=488 q=-0.0 size=N/A time=00:12:16.23 bitrate=N/A speed=20.4x    frame=17898 fps=488 q=-0.0 size=N/A time=00:12:26.49 bitrate=N/A speed=20.4x    frame=18159 fps=488 q=-0.0 size=N/A time=00:12:37.38 bitrate=N/A speed=20.4x    frame=18407 fps=488 q=-0.0 size=N/A time=00:12:47.72 bitrate=N/A speed=20.4x    frame=18665 fps=489 q=-0.0 size=N/A time=00:12:58.48 bitrate=N/A speed=20.4x    frame=18933 fps=489 q=-0.0 size=N/A time=00:13:09.66 bitrate=N/A speed=20.4x    frame=19192 fps=489 q=-0.0 size=N/A time=00:13:20.46 bitrate=N/A speed=20.4x    frame=19452 fps=489 q=-0.0 size=N/A time=00:13:31.31 bitrate=N/A speed=20.4x    frame=19714 fps=490 q=-0.0 size=N/A time=00:13:42.23 bitrate=N/A speed=20.4x    frame=19955 fps=489 q=-0.0 size=N/A time=00:13:52.28 bitrate=N/A speed=20.4x    frame=20193 fps=489 q=-0.0 size=N/A time=00:14:02.21 bitrate=N/A speed=20.4x    frame=20391 fps=488 q=-0.0 size=N/A time=00:14:10.47 bitrate=N/A speed=20.3x    frame=20611 fps=487 q=-0.0 size=N/A time=00:14:19.65 bitrate=N/A speed=20.3x    frame=20838 fps=486 q=-0.0 size=N/A time=00:14:29.11 bitrate=N/A speed=20.3x    frame=21073 fps=486 q=-0.0 size=N/A time=00:14:38.91 bitrate=N/A speed=20.3x    frame=21317 fps=486 q=-0.0 size=N/A time=00:14:49.09 bitrate=N/A speed=20.3x    frame=21544 fps=485 q=-0.0 size=N/A time=00:14:58.56 bitrate=N/A speed=20.2x    frame=21780 fps=485 q=-0.0 size=N/A time=00:15:08.40 bitrate=N/A speed=20.2x    frame=22013 fps=485 q=-0.0 size=N/A time=00:15:18.12 bitrate=N/A speed=20.2x    frame=22232 fps=484 q=-0.0 size=N/A time=00:15:27.25 bitrate=N/A speed=20.2x    frame=22464 fps=484 q=-0.0 size=N/A time=00:15:36.93 bitrate=N/A speed=20.2x    frame=22669 fps=483 q=-0.0 size=N/A time=00:15:45.48 bitrate=N/A speed=20.1x    frame=22896 fps=482 q=-0.0 size=N/A time=00:15:54.95 bitrate=N/A speed=20.1x    frame=23125 fps=482 q=-0.0 size=N/A time=00:16:04.50 bitrate=N/A speed=20.1x    frame=23353 fps=481 q=-0.0 size=N/A time=00:16:14.01 bitrate=N/A speed=20.1x    frame=23583 fps=481 q=-0.0 size=N/A time=00:16:23.60 bitrate=N/A speed=20.1x    frame=23818 fps=481 q=-0.0 size=N/A time=00:16:33.40 bitrate=N/A speed=  20x    frame=24052 fps=480 q=-0.0 size=N/A time=00:16:43.16 bitrate=N/A speed=  20x    frame=24294 fps=480 q=-0.0 size=N/A time=00:16:53.26 bitrate=N/A speed=  20x    frame=24523 fps=480 q=-0.0 size=N/A time=00:17:02.81 bitrate=N/A speed=  20x    frame=24747 fps=480 q=-0.0 size=N/A time=00:17:12.15 bitrate=N/A speed=  20x    frame=24988 fps=479 q=-0.0 size=N/A time=00:17:22.20 bitrate=N/A speed=  20x    frame=25212 fps=479 q=-0.0 size=N/A time=00:17:31.55 bitrate=N/A speed=  20x    frame=25441 fps=479 q=-0.0 size=N/A time=00:17:41.10 bitrate=N/A speed=  20x    frame=25656 fps=478 q=-0.0 size=N/A time=00:17:50.06 bitrate=N/A speed=19.9x    frame=25888 fps=478 q=-0.0 size=N/A time=00:17:59.74 bitrate=N/A speed=19.9x    frame=26119 fps=477 q=-0.0 size=N/A time=00:18:09.37 bitrate=N/A speed=19.9x    frame=26347 fps=477 q=-0.0 size=N/A time=00:18:18.88 bitrate=N/A speed=19.9x    frame=26587 fps=477 q=-0.0 size=N/A time=00:18:28.89 bitrate=N/A speed=19.9x    frame=26817 fps=477 q=-0.0 size=N/A time=00:18:38.49 bitrate=N/A speed=19.9x    frame=27077 fps=477 q=-0.0 size=N/A time=00:18:49.33 bitrate=N/A speed=19.9x    frame=27351 fps=477 q=-0.0 size=N/A time=00:19:00.76 bitrate=N/A speed=19.9x    frame=27614 fps=478 q=-0.0 size=N/A time=00:19:11.73 bitrate=N/A speed=19.9x    frame=27878 fps=478 q=-0.0 size=N/A time=00:19:22.74 bitrate=N/A speed=19.9x    frame=28137 fps=478 q=-0.0 size=N/A time=00:19:33.54 bitrate=N/A speed=  20x    frame=28404 fps=479 q=-0.0 size=N/A time=00:19:44.68 bitrate=N/A speed=  20x    frame=28671 fps=479 q=-0.0 size=N/A time=00:19:55.81 bitrate=N/A speed=  20x    frame=28939 fps=479 q=-0.0 size=N/A time=00:20:06.99 bitrate=N/A speed=  20x    frame=29210 fps=480 q=-0.0 size=N/A time=00:20:18.30 bitrate=N/A speed=  20x    frame=29475 fps=480 q=-0.0 size=N/A time=00:20:29.35 bitrate=N/A speed=  20x    frame=29760 fps=481 q=-0.0 size=N/A time=00:20:41.24 bitrate=N/A speed=  20x    frame=30023 fps=481 q=-0.0 size=N/A time=00:20:52.20 bitrate=N/A speed=20.1x    frame=30298 fps=481 q=-0.0 size=N/A time=00:21:03.67 bitrate=N/A speed=20.1x    frame=30558 fps=482 q=-0.0 size=N/A time=00:21:14.52 bitrate=N/A speed=20.1x    frame=30839 fps=482 q=-0.0 size=N/A time=00:21:26.24 bitrate=N/A speed=20.1x    frame=31102 fps=482 q=-0.0 size=N/A time=00:21:37.21 bitrate=N/A speed=20.1x    frame=31356 fps=482 q=-0.0 size=N/A time=00:21:47.80 bitrate=N/A speed=20.1x    frame=31611 fps=482 q=-0.0 size=N/A time=00:21:58.44 bitrate=N/A speed=20.1x    frame=31847 fps=482 q=-0.0 size=N/A time=00:22:08.28 bitrate=N/A speed=20.1x    frame=32087 fps=482 q=-0.0 size=N/A time=00:22:18.29 bitrate=N/A speed=20.1x    frame=32320 fps=482 q=-0.0 size=N/A time=00:22:28.01 bitrate=N/A speed=20.1x    frame=32538 fps=481 q=-0.0 size=N/A time=00:22:37.10 bitrate=N/A speed=20.1x    frame=32760 fps=481 q=-0.0 size=N/A time=00:22:46.36 bitrate=N/A speed=20.1x    frame=32994 fps=481 q=-0.0 size=N/A time=00:22:56.12 bitrate=N/A speed=20.1x    frame=33232 fps=481 q=-0.0 size=N/A time=00:23:06.05 bitrate=N/A speed=  20x    frame=33473 fps=480 q=-0.0 size=N/A time=00:23:16.10 bitrate=N/A speed=  20x    frame=33698 fps=480 q=-0.0 size=N/A time=00:23:25.48 bitrate=N/A speed=  20x    frame=33943 fps=480 q=-0.0 size=N/A time=00:23:35.70 bitrate=N/A speed=  20x    frame=34201 fps=480 q=-0.0 size=N/A time=00:23:46.46 bitrate=N/A speed=  20x    frame=34378 fps=479 q=-0.0 size=N/A time=00:23:53.84 bitrate=N/A speed=  20x    [Parsed_psnr_10 @ 000002390007d7c0] PSNR y:48.887460 u:53.482878 v:52.946580 average:49.911347 min:39.264052 max:inf
[out#0/null @ 000002397eced2c0] video:14800KiB audio:270316KiB subtitle:0KiB other streams:0KiB global headers:0KiB muxing overhead: unknown
frame=34443 fps=479 q=-0.0 Lsize=N/A time=00:23:56.56 bitrate=N/A speed=  20x    
